<svg xmlns="http://www.w3.org/2000/svg" width="500" height="500" style="width:100%;height:100%;transform:translate3d(0,0,0)" viewBox="0 0 500 500"><defs><clipPath id="a"><path d="M0 0h500v500H0z"/></clipPath><clipPath id="e"><path d="M0 0h500v500H0z"/></clipPath><clipPath id="d"><path d="M0 0h500v500H0z"/></clipPath><clipPath id="c"><path d="M0 0h500v500H0z"/></clipPath><clipPath id="b"><path d="M0 0h500v500H0z"/></clipPath></defs><g clip-path="url(#a)"><g clip-path="url(#b)" opacity="0" style="display:block"><path fill="#121330" d="M36.457 208.128h-72.916c-14.373 0-26.067-11.693-26.067-26.066v-27.888c-14.221-5.63-27.558-13.4-39.845-23.214l-24.15 14.013c-12.438 7.253-28.488 3.044-35.748-9.4l-36.492-63.184a15.384 15.384 0 0 1-.209-.374c-6.844-12.634-2.337-28.39 10.035-35.255l23.841-13.771c-1.062-7.436-1.598-15.204-1.598-23.218s.536-15.784 1.598-23.219l-23.842-13.771c-12.371-6.865-16.878-22.62-10.035-35.254.068-.125.138-.251.21-.375l36.458-63.125c3.559-6.101 9.236-10.399 16.02-12.163 6.745-1.756 13.775-.788 19.794 2.723l24.118 13.995c12.287-9.814 25.626-17.586 39.845-23.215v-27.887c0-14.373 11.694-26.066 26.067-26.066h72.916c14.373 0 26.067 11.693 26.067 26.066v27.887c14.218 5.629 27.557 13.401 39.845 23.215l24.15-14.014c12.436-7.256 28.486-3.048 35.747 9.4l36.493 63.184c.071.124.142.25.21.375 6.842 12.633 2.335 28.386-10.034 35.252l-23.843 13.773c1.062 7.437 1.598 15.207 1.598 23.219 0 8.011-.536 15.781-1.598 23.218l23.842 13.772c12.372 6.865 16.878 22.62 10.034 35.254-.067.125-.138.25-.209.374L162.3 135.514c-7.293 12.502-23.342 16.712-35.81 9.443l-24.121-13.997c-12.288 9.814-25.624 17.584-39.845 23.214v27.888c0 14.373-11.694 26.066-26.067 26.066zm-67.683-31.3h62.45v-33.724a15.65 15.65 0 0 1 11.025-14.952c17.513-5.417 33.59-14.778 47.786-27.822a15.652 15.652 0 0 1 18.444-2.012l29.33 17.019 31.164-53.959-29.094-16.806a15.651 15.651 0 0 1-7.427-17.046c1.949-8.51 2.938-17.848 2.938-27.755 0-9.908-.989-19.247-2.938-27.755a15.65 15.65 0 0 1 7.427-17.046l29.094-16.807-31.164-53.958-29.33 17.019a15.652 15.652 0 0 1-18.444-2.012c-14.198-13.046-30.275-22.407-47.785-27.823a15.649 15.649 0 0 1-11.026-14.951v-33.724h-62.45v33.724c0 6.862-4.47 12.924-11.026 14.951-17.511 5.416-33.588 14.777-47.784 27.823a15.65 15.65 0 0 1-18.444 2.012l-29.332-17.019-31.164 53.959 29.095 16.805a15.651 15.651 0 0 1 7.426 17.049c-1.948 8.503-2.937 17.841-2.937 27.753 0 9.911.989 19.249 2.938 27.754a15.65 15.65 0 0 1-7.427 17.047l-29.095 16.806 31.164 53.959 29.332-17.019a15.649 15.649 0 0 1 18.444 2.012c14.194 13.044 30.271 22.405 47.785 27.822a15.65 15.65 0 0 1 11.025 14.952v33.724zm-111.014-58.921-.019.011.019-.011zm284.449-.017.019.011-.019-.011zm31.585-53.734h.01-.01zM-142.23-118.359l.019.011-.019-.011zm284.49-.019-.02.011a.443.443 0 0 0 .02-.011zM-.001 83.129c-7.065 0-14.275-.939-21.425-2.791a19.29 19.29 0 0 1-.523-.145c-5.082-1.506-12.625-4.009-19.767-8.405a80.202 80.202 0 0 1-30.302-30.3c-4.395-7.139-6.898-14.686-8.405-19.771a15.355 15.355 0 0 1-.144-.52c-1.853-7.146-2.792-14.355-2.792-21.426 0-7.071.939-14.28 2.792-21.427.045-.175.093-.349.144-.522 1.508-5.085 4.01-12.63 8.405-19.768a80.182 80.182 0 0 1 30.299-30.298c7.138-4.396 14.685-6.9 19.77-8.407a15.3 15.3 0 0 1 .519-.144c7.147-1.853 14.358-2.792 21.429-2.792 7.072 0 14.282.939 21.428 2.792.174.045.347.093.519.144 5.086 1.508 12.633 4.012 19.771 8.407a80.19 80.19 0 0 1 30.298 30.299c4.394 7.134 6.897 14.681 8.405 19.767.051.172.098.345.143.519 1.854 7.146 2.794 14.357 2.794 21.43 0 7.074-.94 14.284-2.794 21.429-.045.173-.092.346-.143.517-1.508 5.086-4.01 12.634-8.405 19.77a80.201 80.201 0 0 1-30.299 30.3c-7.142 4.396-14.687 6.899-19.77 8.406-.174.051-.347.1-.523.145-7.149 1.852-14.358 2.791-21.424 2.791zm-13.32-33.026c4.502 1.145 8.982 1.726 13.32 1.726 4.338 0 8.817-.58 13.319-1.725 5.28-1.581 9.143-3.192 12.138-5.064a16.1 16.1 0 0 1 .646-.382 48.912 48.912 0 0 0 18.783-18.784c.123-.22.252-.437.386-.65 1.868-2.99 3.479-6.851 5.06-12.136 1.146-4.495 1.726-8.975 1.726-13.317 0-4.342-.58-8.821-1.726-13.318-1.581-5.285-3.192-9.146-5.06-12.135-.134-.214-.263-.43-.386-.65a48.903 48.903 0 0 0-18.782-18.784 17.034 17.034 0 0 1-.65-.384c-2.991-1.87-6.854-3.481-12.137-5.062-4.497-1.145-8.975-1.725-13.317-1.725-4.341 0-8.82.58-13.318 1.725-5.282 1.581-9.144 3.191-12.136 5.062-.214.133-.43.262-.65.385a48.896 48.896 0 0 0-18.783 18.783c-.123.219-.25.435-.384.648-1.87 2.992-3.481 6.853-5.062 12.136-1.145 4.498-1.725 8.978-1.725 13.319 0 4.341.58 8.819 1.724 13.316 1.581 5.284 3.193 9.146 5.064 12.139.133.213.26.429.383.648a48.908 48.908 0 0 0 18.784 18.784c.218.122.433.25.646.382 2.996 1.872 6.858 3.483 12.137 5.063zM65.415 17.27h.01-.01z" class="primary design" opacity="1" style="display:block" transform="translate(250 250)"/></g><g clip-path="url(#c)" opacity="0" style="display:block"><path fill="#121330" d="M36.457 208.128h-72.916c-14.373 0-26.067-11.693-26.067-26.066v-27.888c-14.221-5.63-27.558-13.4-39.845-23.214l-24.15 14.013c-12.438 7.253-28.488 3.044-35.748-9.4l-36.492-63.184a15.384 15.384 0 0 1-.209-.374c-6.844-12.634-2.337-28.39 10.035-35.255l23.841-13.771c-1.062-7.436-1.598-15.204-1.598-23.218s.536-15.784 1.598-23.219l-23.842-13.771c-12.371-6.865-16.878-22.62-10.035-35.254.068-.125.138-.251.21-.375l36.458-63.125c3.559-6.101 9.236-10.399 16.02-12.163 6.745-1.756 13.775-.788 19.794 2.723l24.118 13.995c12.287-9.814 25.626-17.586 39.845-23.215v-27.887c0-14.373 11.694-26.066 26.067-26.066h72.916c14.373 0 26.067 11.693 26.067 26.066v27.887c14.218 5.629 27.557 13.401 39.845 23.215l24.15-14.014c12.436-7.256 28.486-3.048 35.747 9.4l36.493 63.184c.071.124.142.25.21.375 6.842 12.633 2.335 28.386-10.034 35.252l-23.843 13.773c1.062 7.437 1.598 15.207 1.598 23.219 0 8.011-.536 15.781-1.598 23.218l23.842 13.772c12.372 6.865 16.878 22.62 10.034 35.254-.067.125-.138.25-.209.374L162.3 135.514c-7.293 12.502-23.342 16.712-35.81 9.443l-24.121-13.997c-12.288 9.814-25.624 17.584-39.845 23.214v27.888c0 14.373-11.694 26.066-26.067 26.066zm-67.683-31.3h62.45v-33.724a15.65 15.65 0 0 1 11.025-14.952c17.513-5.417 33.59-14.778 47.786-27.822a15.652 15.652 0 0 1 18.444-2.012l29.33 17.019 31.164-53.959-29.094-16.806a15.651 15.651 0 0 1-7.427-17.046c1.949-8.51 2.938-17.848 2.938-27.755 0-9.908-.989-19.247-2.938-27.755a15.65 15.65 0 0 1 7.427-17.046l29.094-16.807-31.164-53.958-29.33 17.019a15.652 15.652 0 0 1-18.444-2.012c-14.198-13.046-30.275-22.407-47.785-27.823a15.649 15.649 0 0 1-11.026-14.951v-33.724h-62.45v33.724c0 6.862-4.47 12.924-11.026 14.951-17.511 5.416-33.588 14.777-47.784 27.823a15.65 15.65 0 0 1-18.444 2.012l-29.332-17.019-31.164 53.959 29.095 16.805a15.651 15.651 0 0 1 7.426 17.049c-1.948 8.503-2.937 17.841-2.937 27.753 0 9.911.989 19.249 2.938 27.754a15.65 15.65 0 0 1-7.427 17.047l-29.095 16.806 31.164 53.959 29.332-17.019a15.649 15.649 0 0 1 18.444 2.012c14.194 13.044 30.271 22.405 47.785 27.822a15.65 15.65 0 0 1 11.025 14.952v33.724zm-111.014-58.921-.019.011.019-.011zm284.449-.017.019.011-.019-.011zm31.585-53.734h.01-.01zM-142.23-118.359l.019.011-.019-.011zm284.49-.019-.02.011a.443.443 0 0 0 .02-.011zM-.001 83.129c-7.065 0-14.275-.939-21.425-2.791a19.29 19.29 0 0 1-.523-.145c-5.082-1.506-12.625-4.009-19.767-8.405a80.202 80.202 0 0 1-30.302-30.3c-4.395-7.139-6.898-14.686-8.405-19.771a15.355 15.355 0 0 1-.144-.52c-1.853-7.146-2.792-14.355-2.792-21.426 0-7.071.939-14.28 2.792-21.427.045-.175.093-.349.144-.522 1.508-5.085 4.01-12.63 8.405-19.768a80.182 80.182 0 0 1 30.299-30.298c7.138-4.396 14.685-6.9 19.77-8.407a15.3 15.3 0 0 1 .519-.144c7.147-1.853 14.358-2.792 21.429-2.792 7.072 0 14.282.939 21.428 2.792.174.045.347.093.519.144 5.086 1.508 12.633 4.012 19.771 8.407a80.19 80.19 0 0 1 30.298 30.299c4.394 7.134 6.897 14.681 8.405 19.767.051.172.098.345.143.519 1.854 7.146 2.794 14.357 2.794 21.43 0 7.074-.94 14.284-2.794 21.429-.045.173-.092.346-.143.517-1.508 5.086-4.01 12.634-8.405 19.77a80.201 80.201 0 0 1-30.299 30.3c-7.142 4.396-14.687 6.899-19.77 8.406-.174.051-.347.1-.523.145-7.149 1.852-14.358 2.791-21.424 2.791zm-13.32-33.026c4.502 1.145 8.982 1.726 13.32 1.726 4.338 0 8.817-.58 13.319-1.725 5.28-1.581 9.143-3.192 12.138-5.064a16.1 16.1 0 0 1 .646-.382 48.912 48.912 0 0 0 18.783-18.784c.123-.22.252-.437.386-.65 1.868-2.99 3.479-6.851 5.06-12.136 1.146-4.495 1.726-8.975 1.726-13.317 0-4.342-.58-8.821-1.726-13.318-1.581-5.285-3.192-9.146-5.06-12.135-.134-.214-.263-.43-.386-.65a48.903 48.903 0 0 0-18.782-18.784 17.034 17.034 0 0 1-.65-.384c-2.991-1.87-6.854-3.481-12.137-5.062-4.497-1.145-8.975-1.725-13.317-1.725-4.341 0-8.82.58-13.318 1.725-5.282 1.581-9.144 3.191-12.136 5.062-.214.133-.43.262-.65.385a48.896 48.896 0 0 0-18.783 18.783c-.123.219-.25.435-.384.648-1.87 2.992-3.481 6.853-5.062 12.136-1.145 4.498-1.725 8.978-1.725 13.319 0 4.341.58 8.819 1.724 13.316 1.581 5.284 3.193 9.146 5.064 12.139.133.213.26.429.383.648a48.908 48.908 0 0 0 18.784 18.784c.218.122.433.25.646.382 2.996 1.872 6.858 3.483 12.137 5.063zM65.415 17.27h.01-.01z" class="primary design" opacity="1" style="display:block" transform="translate(250 250)"/></g><g clip-path="url(#d)" opacity="0" style="display:block"><path fill="#121330" d="M36.457 208.128h-72.916c-14.373 0-26.067-11.693-26.067-26.066v-27.888c-14.221-5.63-27.558-13.4-39.845-23.214l-24.15 14.013c-12.438 7.253-28.488 3.044-35.748-9.4l-36.492-63.184a15.384 15.384 0 0 1-.209-.374c-6.844-12.634-2.337-28.39 10.035-35.255l23.841-13.771c-1.062-7.436-1.598-15.204-1.598-23.218s.536-15.784 1.598-23.219l-23.842-13.771c-12.371-6.865-16.878-22.62-10.035-35.254.068-.125.138-.251.21-.375l36.458-63.125c3.559-6.101 9.236-10.399 16.02-12.163 6.745-1.756 13.775-.788 19.794 2.723l24.118 13.995c12.287-9.814 25.626-17.586 39.845-23.215v-27.887c0-14.373 11.694-26.066 26.067-26.066h72.916c14.373 0 26.067 11.693 26.067 26.066v27.887c14.218 5.629 27.557 13.401 39.845 23.215l24.15-14.014c12.436-7.256 28.486-3.048 35.747 9.4l36.493 63.184c.071.124.142.25.21.375 6.842 12.633 2.335 28.386-10.034 35.252l-23.843 13.773c1.062 7.437 1.598 15.207 1.598 23.219 0 8.011-.536 15.781-1.598 23.218l23.842 13.772c12.372 6.865 16.878 22.62 10.034 35.254-.067.125-.138.25-.209.374L162.3 135.514c-7.293 12.502-23.342 16.712-35.81 9.443l-24.121-13.997c-12.288 9.814-25.624 17.584-39.845 23.214v27.888c0 14.373-11.694 26.066-26.067 26.066zm-67.683-31.3h62.45v-33.724a15.65 15.65 0 0 1 11.025-14.952c17.513-5.417 33.59-14.778 47.786-27.822a15.652 15.652 0 0 1 18.444-2.012l29.33 17.019 31.164-53.959-29.094-16.806a15.651 15.651 0 0 1-7.427-17.046c1.949-8.51 2.938-17.848 2.938-27.755 0-9.908-.989-19.247-2.938-27.755a15.65 15.65 0 0 1 7.427-17.046l29.094-16.807-31.164-53.958-29.33 17.019a15.652 15.652 0 0 1-18.444-2.012c-14.198-13.046-30.275-22.407-47.785-27.823a15.649 15.649 0 0 1-11.026-14.951v-33.724h-62.45v33.724c0 6.862-4.47 12.924-11.026 14.951-17.511 5.416-33.588 14.777-47.784 27.823a15.65 15.65 0 0 1-18.444 2.012l-29.332-17.019-31.164 53.959 29.095 16.805a15.651 15.651 0 0 1 7.426 17.049c-1.948 8.503-2.937 17.841-2.937 27.753 0 9.911.989 19.249 2.938 27.754a15.65 15.65 0 0 1-7.427 17.047l-29.095 16.806 31.164 53.959 29.332-17.019a15.649 15.649 0 0 1 18.444 2.012c14.194 13.044 30.271 22.405 47.785 27.822a15.65 15.65 0 0 1 11.025 14.952v33.724zm-111.014-58.921-.019.011.019-.011zm284.449-.017.019.011-.019-.011zm31.585-53.734h.01-.01zM-142.23-118.359l.019.011-.019-.011zm284.49-.019-.02.011a.443.443 0 0 0 .02-.011zM-.001 83.129c-7.065 0-14.275-.939-21.425-2.791a19.29 19.29 0 0 1-.523-.145c-5.082-1.506-12.625-4.009-19.767-8.405a80.202 80.202 0 0 1-30.302-30.3c-4.395-7.139-6.898-14.686-8.405-19.771a15.355 15.355 0 0 1-.144-.52c-1.853-7.146-2.792-14.355-2.792-21.426 0-7.071.939-14.28 2.792-21.427.045-.175.093-.349.144-.522 1.508-5.085 4.01-12.63 8.405-19.768a80.182 80.182 0 0 1 30.299-30.298c7.138-4.396 14.685-6.9 19.77-8.407a15.3 15.3 0 0 1 .519-.144c7.147-1.853 14.358-2.792 21.429-2.792 7.072 0 14.282.939 21.428 2.792.174.045.347.093.519.144 5.086 1.508 12.633 4.012 19.771 8.407a80.19 80.19 0 0 1 30.298 30.299c4.394 7.134 6.897 14.681 8.405 19.767.051.172.098.345.143.519 1.854 7.146 2.794 14.357 2.794 21.43 0 7.074-.94 14.284-2.794 21.429-.045.173-.092.346-.143.517-1.508 5.086-4.01 12.634-8.405 19.77a80.201 80.201 0 0 1-30.299 30.3c-7.142 4.396-14.687 6.899-19.77 8.406-.174.051-.347.1-.523.145-7.149 1.852-14.358 2.791-21.424 2.791zm-13.32-33.026c4.502 1.145 8.982 1.726 13.32 1.726 4.338 0 8.817-.58 13.319-1.725 5.28-1.581 9.143-3.192 12.138-5.064a16.1 16.1 0 0 1 .646-.382 48.912 48.912 0 0 0 18.783-18.784c.123-.22.252-.437.386-.65 1.868-2.99 3.479-6.851 5.06-12.136 1.146-4.495 1.726-8.975 1.726-13.317 0-4.342-.58-8.821-1.726-13.318-1.581-5.285-3.192-9.146-5.06-12.135-.134-.214-.263-.43-.386-.65a48.903 48.903 0 0 0-18.782-18.784 17.034 17.034 0 0 1-.65-.384c-2.991-1.87-6.854-3.481-12.137-5.062-4.497-1.145-8.975-1.725-13.317-1.725-4.341 0-8.82.58-13.318 1.725-5.282 1.581-9.144 3.191-12.136 5.062-.214.133-.43.262-.65.385a48.896 48.896 0 0 0-18.783 18.783c-.123.219-.25.435-.384.648-1.87 2.992-3.481 6.853-5.062 12.136-1.145 4.498-1.725 8.978-1.725 13.319 0 4.341.58 8.819 1.724 13.316 1.581 5.284 3.193 9.146 5.064 12.139.133.213.26.429.383.648a48.908 48.908 0 0 0 18.784 18.784c.218.122.433.25.646.382 2.996 1.872 6.858 3.483 12.137 5.063zM65.415 17.27h.01-.01z" class="primary design" opacity="1" style="display:block" transform="translate(250 250)"/></g><g clip-path="url(#e)" style="display:block"><path fill="none" class="primary design" style="display:none"/><path fill="none" class="primary design" style="display:none"/><path class="primary design" style="display:none"/></g><g class="com" style="display:none"><path/><path/><path/><path/><path/><path/><path/><path/><path/><path/><path/><path/></g></g></svg>